<svg viewBox="0 0 88 18" fill="none" xmlns="http://www.w3.org/2000/svg">
<g clip-path="url(#clip0_0_1)">
<path d="M6.26451 13.646C6.26451 11.3084 5.291 10.4148 3.18394 9.20517C0.927433 7.90973 0.502962 5.37639 1.43386 3.41394C-0.246488 5.74233 -0.493586 8.95496 0.924987 11.5756C1.5146 12.6648 2.36395 13.5949 3.41412 14.257C3.59434 14.3481 3.71891 14.5428 3.71891 14.7682V16.7207C3.71891 17.4011 4.50628 17.7666 4.97581 17.2703C5.10955 17.1289 5.19253 16.9343 5.19253 16.7207V13.646C5.19253 13.3331 5.43249 13.0796 5.72852 13.0796C6.02455 13.0796 6.26451 13.3333 6.26451 13.646Z" fill="url(#paint0_linear_0_1)"/>
<path d="M6.26451 13.646C6.26451 11.3084 5.291 10.4148 3.18394 9.20517C0.927434 7.90973 0.502963 5.37639 1.43386 3.41394C0.374317 5.20269 0.480944 8.05843 2.69178 9.43189C4.49079 10.5495 5.27408 11.4359 5.35359 13.2413C5.45023 13.1413 5.58255 13.0796 5.72852 13.0796C6.02455 13.0796 6.26451 13.3333 6.26451 13.646Z" fill="#020C6A"/>
<path d="M0.404898 5.42206C-0.260555 7.40218 -0.118046 9.64889 0.924987 11.5756C1.5146 12.6648 2.36395 13.5949 3.41412 14.257C3.59434 14.3481 3.71891 14.5427 3.71891 14.7682V16.7207C3.71891 17.4011 4.50628 17.7666 4.97581 17.2702C5.10955 17.1289 5.19253 16.9343 5.19253 16.7207V14.0197C5.19253 11.9751 4.13849 11.0861 2.9136 10.3383C1.47607 9.46118 0.0428131 7.82674 0.404898 5.42206Z" fill="#B6FFFF"/>
<path d="M3.18394 9.20519C5.29101 10.4149 6.26452 11.3084 6.26452 13.646V15.0035C6.26452 15.6841 7.05189 16.0494 7.52121 15.5533C7.65496 15.4117 7.73814 15.2171 7.73814 15.0035V10.5657C7.73814 10.253 7.9781 9.99935 8.27413 9.99935C8.57016 9.99935 8.80992 10.253 8.80992 10.5657C8.80992 8.14638 7.54629 6.77982 5.84494 6.0779C2.84795 4.84172 3.49241 1.31229 5.64269 0.64032C4.32667 0.914235 3.07079 1.58986 2.05141 2.66764C1.82776 2.90406 1.62184 3.1534 1.43387 3.41396C0.502965 5.37641 0.927436 7.90975 3.18394 9.20519Z" fill="url(#paint1_linear_0_1)"/>
<path d="M8.0203 10.0668C8.09573 10.0237 8.18218 9.99935 8.27413 9.99935C8.57015 9.99935 8.80991 10.253 8.80991 10.5657C8.80991 8.14638 7.54629 6.77982 5.84494 6.0779C2.84795 4.84172 3.4924 1.31229 5.64269 0.64032C3.34745 1.09505 2.36966 4.93956 5.49182 6.42961C6.86962 7.08714 7.8627 8.10242 8.0203 10.0668Z" fill="#020C6A"/>
<path d="M3.18394 9.20515C5.29101 10.4148 6.26452 11.3083 6.26452 13.646V15.0035C6.26452 15.6841 7.05189 16.0494 7.52121 15.5533C7.65496 15.4117 7.73814 15.2171 7.73814 15.0035V11.3659C7.73814 9.35385 6.02272 8.28405 4.64961 7.43817C2.07037 5.84941 1.60961 4.15614 2.51115 2.22235C2.35335 2.36243 2.19983 2.51071 2.05141 2.6676C1.82776 2.90401 1.62184 3.15336 1.43387 3.41392C0.502965 5.37637 0.927436 7.90971 3.18394 9.20515Z" fill="#5EFAF7"/>
<path d="M5.64269 0.640286C3.49241 1.31225 2.84795 4.84169 5.84494 6.07786C7.54629 6.77979 8.80991 8.14635 8.80991 10.5657V16.7207C8.80991 17.4013 9.59749 17.7666 10.0668 17.2703C10.2006 17.1289 10.2858 16.9343 10.2858 16.7207V14.7572C10.2894 14.5675 10.3834 14.3843 10.5496 14.2813C14.4765 11.8445 15.2002 6.102 11.9512 2.66761C10.287 0.908383 7.92448 0.165729 5.64269 0.640286Z" fill="url(#paint2_linear_0_1)"/>
<path d="M5.64269 0.640286C4.03186 1.14372 3.26631 3.25056 4.24328 4.79578C4.60149 2.72903 8.58341 2.76652 9.42317 6.11342C9.96528 8.27285 8.80991 10.2355 8.80991 12.2982V16.7207C8.80991 17.4013 9.59749 17.7666 10.0668 17.2703C10.2006 17.1289 10.2858 16.9343 10.2858 16.7207V14.7572C10.2894 14.5675 10.3834 14.3843 10.5496 14.2813C14.4765 11.8445 15.2002 6.102 11.9512 2.66761C10.287 0.908383 7.92448 0.165729 5.64269 0.640286Z" fill="#F5FF8A"/>
<path d="M11.9818 9.47307C11.1111 11.0674 10.289 11.0332 10.2858 14.7572C10.2894 14.5676 10.3834 14.3844 10.5496 14.2814C14.4765 11.8446 15.2002 6.10203 11.9512 2.66764C11.4901 2.18015 10.9804 1.77477 10.4387 1.45172C13.5515 3.35146 13.3574 6.95481 11.9818 9.47307Z" fill="url(#paint3_linear_0_1)"/>
<path d="M11.9818 9.47304C11.1111 11.0674 10.289 11.0331 10.2858 14.7572C10.2894 14.5675 10.3834 14.3843 10.5496 14.2813C10.7484 14.1578 10.9386 14.0257 11.1211 13.8861C11.1559 11.3836 11.8864 11.1581 12.5747 9.67606C13.4575 7.7746 13.7048 5.36496 12.6251 3.49087C12.4232 3.20467 12.199 2.92946 11.9512 2.66761C11.4937 2.18401 10.9885 1.78143 10.4519 1.45967L10.4487 1.45795C13.5509 3.35919 13.356 6.95738 11.9818 9.47304Z" fill="#020C6A"/>
<path d="M0.28971 5.79596C-0.239146 7.68147 -0.0528024 9.76913 0.92499 11.5756C1.5146 12.6648 2.36395 13.5949 3.41412 14.257C3.59435 14.3481 3.71891 14.5427 3.71891 14.7681C3.71891 13.1798 3.67365 12.2421 2.13092 10.9803C0.827944 9.9146 -0.244854 7.91142 0.28971 5.79596Z" fill="url(#paint4_linear_0_1)"/>
<path d="M0.289709 5.79596C0.173092 6.21211 0.0911332 6.63818 0.0450571 7.06899C-0.0334354 8.68102 0.731713 10.1935 1.69034 11.132C2.76946 12.188 3.01615 12.9813 3.01533 13.9856C3.1448 14.0804 3.27772 14.171 3.41412 14.257C3.59434 14.3481 3.71891 14.5427 3.71891 14.7681C3.71891 13.1798 3.67365 12.2421 2.13092 10.9803C0.827943 9.9146 -0.244855 7.91142 0.289709 5.79596Z" fill="#1E003D"/>
<path d="M10.2858 14.7572C10.289 11.0332 11.1111 11.0674 11.9818 9.47307C13.3517 6.96516 13.5492 3.38185 10.477 1.47586C10.4595 1.4653 10.4419 1.45474 10.4244 1.4444C10.4301 1.4597 12.2823 2.42196 12.6644 5.11586C12.9084 6.83736 12.3305 8.66383 11.3649 10.0478C11.2517 10.2099 11.1345 10.369 11.0218 10.5315C10.1186 11.8353 10.1286 13.2346 10.2858 14.7572Z" fill="#F5FF8A"/>
<path d="M5.63637 0.642456C3.49118 1.31916 2.85101 4.843 5.84494 6.07788C7.54629 6.7798 8.80992 8.14636 8.80992 10.5657C8.80992 9.06293 8.71695 8.14658 7.84069 7.17397C7.34486 6.62355 6.70081 6.18714 5.92302 5.86625C5.13259 5.54018 4.43737 4.96929 4.15256 4.09819C4.00006 3.63204 3.98722 3.13183 4.09976 2.66115C4.29323 1.85169 4.8963 0.970465 5.63637 0.642456Z" fill="#F5FF8A"/>
<path d="M3.18394 9.20516C5.291 10.4148 6.26451 11.3083 6.26451 13.646C6.26451 12.7792 6.35218 11.9372 5.90692 11.1935C5.31669 10.2079 4.23289 9.54934 3.28629 9.00603C2.40676 8.50109 1.74151 7.74615 1.41327 6.80846C1.04548 5.75719 1.09869 4.37253 1.42856 3.42535C0.504799 5.38608 0.93192 7.91209 3.18394 9.20516Z" fill="#5EFAF7"/>
<path d="M0.289707 5.7962C-0.244857 7.91145 0.827941 9.91485 2.13092 10.9803C3.67365 12.2422 3.71891 13.1799 3.71891 14.7682C3.72809 13.5314 3.86774 12.4784 3.03857 11.5499C2.80126 11.2844 2.54438 11.0321 2.26201 10.801C1.78106 10.4077 1.35986 9.90515 1.03875 9.34805C0.356579 8.16446 0.0986749 7.13281 0.289707 5.7962Z" fill="#B6FFFF"/>
<path d="M3.85143 14.7682V16.7207C3.85143 17.2834 4.50037 17.5746 4.88203 17.1711C4.99538 17.0513 5.06001 16.8905 5.06001 16.7207V14.7682C5.06001 15.121 4.78947 15.407 4.45572 15.407C4.12198 15.407 3.85143 15.121 3.85143 14.7682Z" fill="#B6FFFF"/>
<path d="M4.92953 16.556C4.86409 16.7664 4.67672 16.9185 4.45572 16.9185C4.23472 16.9185 4.04736 16.7664 3.98191 16.556C3.96581 16.6078 3.95704 16.6631 3.95704 16.7207C3.95704 17.0116 4.18028 17.2476 4.45572 17.2476C4.73116 17.2476 4.9544 17.0116 4.9544 16.7207C4.9544 16.6631 4.94564 16.6078 4.92953 16.556Z" fill="#B6FFFF"/>
<path d="M6.39703 13.051V15.0035C6.39703 15.5664 7.04597 15.8574 7.42763 15.4541C7.54099 15.3341 7.60561 15.1733 7.60561 15.0035V13.051C7.60561 13.4038 7.33507 13.6897 7.00132 13.6897C6.66758 13.6897 6.39703 13.4038 6.39703 13.051Z" fill="#5EFAF7"/>
<path d="M8.94468 14.7682V16.7207C8.94468 17.2834 9.59361 17.5746 9.97527 17.1711C10.0886 17.0513 10.1533 16.8905 10.1533 16.7207V14.7682C10.1533 15.121 9.88271 15.407 9.54897 15.407C9.21522 15.407 8.94468 15.121 8.94468 14.7682Z" fill="#F5FF8A"/>
<path d="M7.47513 14.8389C7.40969 15.0494 7.22233 15.2014 7.00133 15.2014C6.78032 15.2014 6.59296 15.0494 6.52752 14.8389C6.51141 14.8906 6.50264 14.946 6.50264 15.0035C6.50264 15.2947 6.72589 15.5307 7.00133 15.5307C7.27676 15.5307 7.50001 15.2947 7.50001 15.0035C7.50001 14.946 7.49124 14.8906 7.47513 14.8389Z" fill="#76F7F5"/>
<path d="M10.0228 16.556C9.95733 16.7664 9.76997 16.9185 9.54897 16.9185C9.32797 16.9185 9.1406 16.7664 9.07516 16.556C9.05905 16.6078 9.05029 16.6631 9.05029 16.7207C9.05029 17.0116 9.27353 17.2476 9.54897 17.2476C9.8244 17.2476 10.0476 17.0116 10.0476 16.7207C10.0476 16.6631 10.0389 16.6078 10.0228 16.556Z" fill="#F7FCC5"/>
</g>
<path d="M19.2912 2.90909H22.1932L26.0795 12.3949H26.233L30.1193 2.90909H33.0213V16H30.7457V7.00639H30.6243L27.0064 15.9616H25.3061L21.6882 6.98722H21.5668V16H19.2912V2.90909ZM38.3267 16.1982C37.7045 16.1982 37.1442 16.0874 36.6456 15.8658C36.1513 15.6399 35.7592 15.3075 35.4695 14.8686C35.1839 14.4297 35.0412 13.8885 35.0412 13.245C35.0412 12.6911 35.1435 12.233 35.348 11.8707C35.5526 11.5085 35.8317 11.2188 36.1854 11.0014C36.5391 10.7841 36.9375 10.62 37.3807 10.5092C37.8281 10.3942 38.2905 10.3111 38.7678 10.2599C39.343 10.2003 39.8097 10.147 40.1676 10.1001C40.5256 10.049 40.7855 9.9723 40.9474 9.87003C41.1136 9.76349 41.1967 9.59943 41.1967 9.37784V9.33949C41.1967 8.85795 41.054 8.48509 40.7685 8.22088C40.483 7.95668 40.0717 7.82457 39.5348 7.82457C38.968 7.82457 38.5185 7.94815 38.1861 8.19531C37.858 8.44247 37.6364 8.73437 37.5213 9.07102L35.3608 8.7642C35.5313 8.16761 35.8125 7.66903 36.2045 7.26847C36.5966 6.86364 37.076 6.56108 37.6428 6.3608C38.2095 6.15625 38.8359 6.05398 39.522 6.05398C39.995 6.05398 40.4659 6.10938 40.9347 6.22017C41.4034 6.33097 41.8317 6.5142 42.2195 6.76989C42.6072 7.02131 42.9183 7.36435 43.1527 7.79901C43.3913 8.23366 43.5107 8.77699 43.5107 9.42898V16H41.2862V14.6513H41.2095C41.0689 14.924 40.8707 15.1797 40.6151 15.4183C40.3636 15.6527 40.0462 15.8423 39.6626 15.9872C39.2834 16.1278 38.8381 16.1982 38.3267 16.1982ZM38.9276 14.4979C39.392 14.4979 39.7947 14.4062 40.1357 14.223C40.4766 14.0355 40.7386 13.7884 40.9219 13.4815C41.1094 13.1747 41.2031 12.8402 41.2031 12.478V11.321C41.1307 11.3807 41.0071 11.4361 40.8324 11.4872C40.6619 11.5384 40.4702 11.5831 40.2571 11.6214C40.044 11.6598 39.8331 11.6939 39.6243 11.7237C39.4155 11.7536 39.2344 11.7791 39.081 11.8004C38.7358 11.8473 38.4268 11.924 38.1541 12.0305C37.8814 12.1371 37.6662 12.2862 37.5085 12.478C37.3509 12.6655 37.272 12.9084 37.272 13.2067C37.272 13.6328 37.4276 13.9545 37.7386 14.1719C38.0497 14.3892 38.446 14.4979 38.9276 14.4979ZM45.8374 16V6.18182H48.081V7.81818H48.1832C48.3622 7.25142 48.669 6.81463 49.1037 6.50781C49.5426 6.19673 50.0433 6.04119 50.6058 6.04119C50.7337 6.04119 50.8764 6.04758 51.0341 6.06037C51.196 6.06889 51.3303 6.08381 51.4368 6.10511V8.23366C51.3388 8.19957 51.1832 8.16974 50.9702 8.14418C50.7614 8.11435 50.5589 8.09943 50.3629 8.09943C49.9411 8.09943 49.5618 8.19105 49.2251 8.37429C48.8928 8.55327 48.6307 8.80256 48.4389 9.12216C48.2472 9.44176 48.1513 9.81037 48.1513 10.228V16H45.8374ZM53.0763 16V2.90909H55.3903V7.8054H55.4862C55.6055 7.56676 55.7738 7.31321 55.9911 7.04474C56.2085 6.77202 56.5025 6.53977 56.8732 6.34801C57.244 6.15199 57.717 6.05398 58.2923 6.05398C59.0508 6.05398 59.7347 6.24787 60.3441 6.63565C60.9577 7.01918 61.4435 7.58807 61.8015 8.34233C62.1637 9.09233 62.3448 10.0128 62.3448 11.1037C62.3448 12.1818 62.168 13.098 61.8143 13.8523C61.4606 14.6065 60.979 15.1818 60.3697 15.5781C59.7603 15.9744 59.07 16.1726 58.2987 16.1726C57.7362 16.1726 57.2695 16.0788 56.8988 15.8913C56.5281 15.7038 56.2298 15.478 56.0039 15.2138C55.7823 14.9453 55.6097 14.6918 55.4862 14.4531H55.3519V16H53.0763ZM55.3455 11.0909C55.3455 11.7259 55.435 12.282 55.614 12.7592C55.7972 13.2365 56.0593 13.6094 56.4002 13.8778C56.7454 14.142 57.163 14.2741 57.6531 14.2741C58.1644 14.2741 58.5927 14.1378 58.9379 13.8651C59.283 13.5881 59.543 13.2109 59.7177 12.7337C59.8967 12.2521 59.9862 11.7045 59.9862 11.0909C59.9862 10.4815 59.8988 9.94034 59.7241 9.46733C59.5494 8.99432 59.2894 8.62358 58.9442 8.35511C58.5991 8.08665 58.1687 7.95241 57.6531 7.95241C57.1587 7.95241 56.739 8.08239 56.3938 8.34233C56.0487 8.60227 55.7866 8.96662 55.6076 9.43537C55.4329 9.90412 55.3455 10.456 55.3455 11.0909ZM66.6259 2.90909V16H64.312V2.90909H66.6259ZM73.3519 16.1918C72.3675 16.1918 71.5174 15.9872 70.8015 15.5781C70.0898 15.1648 69.5423 14.581 69.1587 13.8267C68.7752 13.0682 68.5835 12.1754 68.5835 11.1484C68.5835 10.1385 68.7752 9.25213 69.1587 8.48935C69.5465 7.7223 70.0877 7.12571 70.7823 6.69957C71.4769 6.26918 72.293 6.05398 73.2305 6.05398C73.8356 6.05398 74.4066 6.15199 74.9435 6.34801C75.4847 6.53977 75.962 6.83807 76.3754 7.2429C76.793 7.64773 77.1211 8.16335 77.3597 8.78977C77.5984 9.41193 77.7177 10.1534 77.7177 11.0142V11.7237H69.6701V10.1641H75.4996C75.4954 9.72088 75.3995 9.3267 75.212 8.98153C75.0245 8.6321 74.7624 8.35724 74.4258 8.15696C74.0934 7.95668 73.7056 7.85653 73.2624 7.85653C72.7894 7.85653 72.3739 7.97159 72.016 8.2017C71.658 8.42756 71.3789 8.72585 71.1786 9.09659C70.9826 9.46307 70.8825 9.86577 70.8782 10.3047V11.6662C70.8782 12.2372 70.9826 12.7273 71.1914 13.1364C71.4002 13.5412 71.6921 13.8523 72.0671 14.0696C72.4421 14.2827 72.881 14.3892 73.3839 14.3892C73.7205 14.3892 74.0252 14.3423 74.2979 14.2486C74.5707 14.1506 74.8072 14.0078 75.0075 13.8203C75.2077 13.6328 75.359 13.4006 75.4613 13.1236L77.6218 13.3665C77.4854 13.9375 77.2255 14.4361 76.842 14.8622C76.4627 15.2841 75.9769 15.6122 75.3846 15.8466C74.7923 16.0767 74.1147 16.1918 73.3519 16.1918ZM87.4352 8.77699L85.3258 9.0071C85.2662 8.79403 85.1618 8.59375 85.0126 8.40625C84.8677 8.21875 84.6717 8.06747 84.4245 7.95241C84.1774 7.83736 83.8748 7.77983 83.5169 7.77983C83.0353 7.77983 82.6305 7.88423 82.3024 8.09304C81.9785 8.30185 81.8187 8.57244 81.823 8.90483C81.8187 9.19034 81.9231 9.42259 82.1362 9.60156C82.3535 9.78054 82.7115 9.92756 83.2101 10.0426L84.8848 10.4006C85.8137 10.6009 86.5041 10.9183 86.9558 11.353C87.4118 11.7876 87.6419 12.3565 87.6461 13.0597C87.6419 13.6776 87.4608 14.223 87.1028 14.696C86.7491 15.1648 86.2569 15.5312 85.6262 15.7955C84.9956 16.0597 84.2711 16.1918 83.4529 16.1918C82.2512 16.1918 81.2839 15.9403 80.551 15.4375C79.818 14.9304 79.3812 14.2251 79.2406 13.3217L81.497 13.1044C81.5993 13.5476 81.8166 13.8821 82.149 14.108C82.4814 14.3338 82.9139 14.4467 83.4466 14.4467C83.9963 14.4467 84.4373 14.3338 84.7697 14.108C85.1064 13.8821 85.2747 13.603 85.2747 13.2706C85.2747 12.9893 85.166 12.7571 84.9487 12.5739C84.7356 12.3906 84.4032 12.25 83.9515 12.152L82.2768 11.8004C81.335 11.6044 80.6383 11.2741 80.1866 10.8097C79.7349 10.3409 79.5112 9.74858 79.5154 9.03267C79.5112 8.42756 79.6752 7.90341 80.0076 7.46023C80.3443 7.01278 80.8109 6.66761 81.4075 6.42472C82.0083 6.17756 82.7008 6.05398 83.4849 6.05398C84.6355 6.05398 85.541 6.29901 86.2015 6.78906C86.8663 7.27912 87.2775 7.94176 87.4352 8.77699Z" fill="#F0F9FF"/>
<defs>
<linearGradient id="paint0_linear_0_1" x1="3.13215" y1="2.7687" x2="3.13238" y2="17.8373" gradientUnits="userSpaceOnUse">
<stop stop-color="#114FEE"/>
<stop offset="1" stop-color="#15B0F8"/>
</linearGradient>
<linearGradient id="paint1_linear_0_1" x1="4.891" y1="-0.800161" x2="4.891" y2="16.9873" gradientUnits="userSpaceOnUse">
<stop stop-color="#0463EF"/>
<stop offset="1" stop-color="#4EEC91"/>
</linearGradient>
<linearGradient id="paint2_linear_0_1" x1="8.90492" y1="-5.20482" x2="8.90492" y2="22.6098" gradientUnits="userSpaceOnUse">
<stop stop-color="#07ABA0"/>
<stop offset="1" stop-color="#ECF955"/>
</linearGradient>
<linearGradient id="paint3_linear_0_1" x1="12.1429" y1="-3.10183" x2="12.1429" y2="19.9541" gradientUnits="userSpaceOnUse">
<stop stop-color="#0463EF"/>
<stop offset="1" stop-color="#4EEC91"/>
</linearGradient>
<linearGradient id="paint4_linear_0_1" x1="1.85936" y1="7.61186" x2="1.85936" y2="15.7692" gradientUnits="userSpaceOnUse">
<stop stop-color="#0049E7"/>
<stop offset="1" stop-color="#C835F8"/>
</linearGradient>
<clipPath id="clip0_0_1">
<rect width="14" height="17" fill="white" transform="translate(0 0.5)"/>
</clipPath>
</defs>
</svg>
