<svg  viewBox="0 0 187 174" fill="none">
<g clip-path="url(#clip0_0_1)">
<path d="M87.3625 95.689C87.3625 78.7382 79.9005 72.2592 63.7499 63.4877C46.4538 54.0942 43.2002 35.7245 50.3356 21.4944C37.4557 38.378 35.5617 61.6734 46.435 80.676C50.9544 88.5739 57.4647 95.3186 65.5142 100.119C66.8956 100.78 67.8505 102.191 67.8505 103.826V117.984C67.8505 122.918 73.8857 125.568 77.4846 121.969C78.5097 120.944 79.1458 119.533 79.1458 117.984V95.689C79.1458 93.4199 80.9851 91.5822 83.2541 91.5822C85.5232 91.5822 87.3625 93.4215 87.3625 95.689Z" fill="url(#paint0_linear_0_1)"/>
<path d="M87.3626 95.689C87.3626 78.7382 79.9006 72.2592 63.75 63.4877C46.4539 54.0942 43.2003 35.7245 50.3356 21.4944C42.2142 34.465 43.0315 55.1725 59.9776 65.1317C73.767 73.2359 79.7709 79.6633 80.3804 92.7542C81.1211 92.0291 82.1353 91.5822 83.2542 91.5822C85.5233 91.5822 87.3626 93.4215 87.3626 95.689Z" fill="#020C6A"/>
<path d="M42.4486 36.0558C37.3479 50.414 38.4402 66.7053 46.4351 80.6759C50.9545 88.5739 57.4647 95.3186 65.5143 100.119C66.8957 100.78 67.8505 102.191 67.8505 103.826V117.984C67.8505 122.918 73.8857 125.568 77.4846 121.969C78.5098 120.944 79.1458 119.533 79.1458 117.984V98.3987C79.1458 83.5732 71.0666 77.127 61.6778 71.7044C50.6591 65.3442 39.6732 53.4925 42.4486 36.0558Z" fill="#B6FFFF"/>
<path d="M63.7498 63.4877C79.9004 72.2592 87.3624 78.7382 87.3624 95.689V105.533C87.3624 110.468 93.3976 113.116 96.995 109.519C98.0201 108.492 98.6577 107.081 98.6577 105.533V73.3531C98.6577 71.0856 100.497 69.2463 102.766 69.2463C105.035 69.2463 106.873 71.0856 106.873 73.3531C106.873 55.8101 97.1872 45.9009 84.1463 40.8112C61.1744 31.8474 66.1142 6.25487 82.5961 1.38232C72.5088 3.36853 62.8825 8.26764 55.0689 16.0828C53.3546 17.7971 51.7763 19.6051 50.3355 21.4945C43.2001 35.7245 46.4537 54.0942 63.7498 63.4877Z" fill="url(#paint1_linear_0_1)"/>
<path d="M100.821 69.7354C101.399 69.4229 102.061 69.2463 102.766 69.2463C105.035 69.2463 106.873 71.0856 106.873 73.3531C106.873 55.8101 97.1873 45.9009 84.1464 40.8112C61.1745 31.8474 66.1143 6.25487 82.5962 1.38232C65.0032 4.67965 57.5084 32.5569 81.4398 43.3615C92.0006 48.1294 99.6126 55.4913 100.821 69.7354Z" fill="#020C6A"/>
<path d="M63.7498 63.4877C79.9004 72.2592 87.3624 78.7382 87.3624 95.689V105.532C87.3624 110.468 93.3976 113.116 96.995 109.519C98.0201 108.492 98.6577 107.081 98.6577 105.532V79.1554C98.6577 64.566 85.509 56.8086 74.9841 50.675C55.2142 39.1547 51.6825 26.8764 58.5928 12.8542C57.3833 13.87 56.2066 14.9451 55.0689 16.0828C53.3546 17.7971 51.7763 19.6051 50.3355 21.4944C43.2001 35.7245 46.4537 54.0942 63.7498 63.4877Z" fill="#5EFAF7"/>
<path d="M82.5963 1.38229C66.1144 6.25483 61.1746 31.8474 84.1465 40.8111C97.1874 45.9009 106.873 55.81 106.873 73.3531V117.984C106.873 122.919 112.91 125.568 116.507 121.969C117.532 120.944 118.186 119.533 118.186 117.984V103.746C118.214 102.371 118.934 101.043 120.208 100.296C150.307 82.6262 155.855 40.9861 130.951 16.0827C118.195 3.32631 100.086 -2.05881 82.5963 1.38229Z" fill="url(#paint2_linear_0_1)"/>
<path d="M82.5962 1.38229C70.2492 5.03279 64.3812 20.3099 71.8697 31.5145C74.6154 16.5281 105.137 16.8 111.574 41.069C115.729 56.7274 106.873 70.959 106.873 85.9157V117.984C106.873 122.919 112.91 125.568 116.507 121.969C117.532 120.944 118.185 119.533 118.185 117.984V103.746C118.214 102.371 118.934 101.043 120.208 100.296C150.307 82.6262 155.855 40.9861 130.951 16.0827C118.195 3.32631 100.086 -2.05881 82.5962 1.38229Z" fill="#F5FF8A"/>
<path d="M131.186 65.4301C124.511 76.9911 118.211 76.7426 118.186 103.746C118.214 102.371 118.934 101.043 120.208 100.296C150.307 82.6262 155.855 40.9862 130.951 16.0828C127.416 12.5479 123.51 9.60844 119.358 7.26593C143.217 21.0413 141.729 47.1698 131.186 65.4301Z" fill="url(#paint3_linear_0_1)"/>
<path d="M131.186 65.4302C124.511 76.9911 118.211 76.7427 118.186 103.746C118.214 102.371 118.934 101.043 120.208 100.296C121.731 99.4004 123.189 98.4425 124.588 97.4299C124.855 79.2836 130.454 77.649 135.73 66.9022C142.497 53.1144 144.392 35.6417 136.116 22.0524C134.569 19.9771 132.85 17.9815 130.951 16.0828C127.445 12.5761 123.572 9.65691 119.459 7.32378L119.434 7.31128C143.212 21.0975 141.718 47.1886 131.186 65.4302Z" fill="#020C6A"/>
<path d="M41.5656 38.7671C37.5119 52.4393 38.9403 67.5773 46.435 80.676C50.9544 88.5739 57.4647 95.3186 65.5142 100.119C66.8956 100.78 67.8505 102.191 67.8505 103.826C67.8505 92.3088 67.5035 85.5094 55.6785 76.3597C45.6912 68.6321 37.4682 54.1067 41.5656 38.7671Z" fill="url(#paint4_linear_0_1)"/>
<path d="M41.5657 38.7671C40.6718 41.7847 40.0436 44.8742 39.6904 47.998C39.0888 59.6871 44.9537 70.6543 52.3015 77.4599C60.573 85.1172 62.4639 90.8695 62.4576 98.1518C63.4499 98.8394 64.4688 99.4957 65.5143 100.119C66.8957 100.78 67.8506 102.191 67.8506 103.826C67.8506 92.3088 67.5036 85.5094 55.6786 76.3597C45.6913 68.6321 37.4683 54.1067 41.5657 38.7671Z" fill="#1E003D"/>
<path d="M118.185 103.746C118.21 76.7427 124.511 76.9911 131.186 65.4302C141.686 47.2449 143.2 21.2616 119.651 7.44099C119.517 7.36441 119.382 7.28784 119.248 7.21283C119.292 7.32378 133.489 14.3013 136.418 33.8352C138.288 46.3182 133.858 59.5622 126.457 69.5979C125.59 70.7731 124.691 71.9264 123.827 73.1047C116.904 82.5591 116.981 92.7058 118.185 103.746Z" fill="#F5FF8A"/>
<path d="M82.5476 1.39795C66.1048 6.30487 61.1978 31.8568 84.1463 40.8112C97.1871 45.9009 106.873 55.8101 106.873 73.3531C106.873 62.4563 106.16 55.8116 99.4437 48.7591C95.6432 44.7679 90.7066 41.6035 84.7448 39.2766C78.6862 36.9122 73.3573 32.7726 71.1742 26.4561C70.0053 23.0759 69.9068 19.4489 70.7695 16.0359C72.2525 10.1663 76.875 3.7764 82.5476 1.39795Z" fill="#F5FF8A"/>
<path d="M63.75 63.4877C79.9006 72.2592 87.3626 78.7382 87.3626 95.689C87.3626 89.4037 88.0346 83.2982 84.6216 77.9053C80.0975 70.759 71.7901 65.9833 64.5345 62.0437C57.7929 58.3823 52.6938 52.9081 50.1778 46.1088C47.3587 38.4858 47.7665 28.4454 50.295 21.5773C43.2144 35.7948 46.4882 54.1114 63.75 63.4877Z" fill="#5EFAF7"/>
<path d="M41.5656 38.7687C37.4682 54.1067 45.6912 68.6337 55.6785 76.3598C67.5036 85.5094 67.8505 92.3088 67.8505 103.826C67.9208 94.8576 68.9913 87.2222 62.6357 80.49C60.8167 78.5647 58.8477 76.7348 56.6833 75.0596C52.9969 72.2076 49.7683 68.5634 47.3071 64.5238C42.0782 55.9413 40.1014 48.4606 41.5656 38.7687Z" fill="#B6FFFF"/>
<path d="M68.8662 103.826V117.984C68.8662 122.064 73.8403 124.176 76.7657 121.25C77.6346 120.381 78.13 119.216 78.13 117.984V103.826C78.13 106.384 76.0563 108.458 73.4981 108.458C70.9399 108.458 68.8662 106.384 68.8662 103.826Z" fill="#B6FFFF"/>
<path d="M77.1299 116.79C76.6283 118.315 75.1922 119.419 73.4982 119.419C71.8042 119.419 70.3681 118.315 69.8664 116.79C69.743 117.165 69.6758 117.567 69.6758 117.984C69.6758 120.094 71.387 121.805 73.4982 121.805C75.6094 121.805 77.3206 120.094 77.3206 117.984C77.3206 117.567 77.2534 117.165 77.1299 116.79Z" fill="#B6FFFF"/>
<path d="M88.3782 91.3743V105.533C88.3782 109.614 93.3523 111.724 96.2777 108.8C97.1466 107.93 97.6419 106.764 97.6419 105.533V91.3743C97.6419 93.9325 95.5682 96.0062 93.0101 96.0062C90.4519 96.0062 88.3782 93.9325 88.3782 91.3743Z" fill="#5EFAF7"/>
<path d="M107.906 103.826V117.984C107.906 122.064 112.88 124.176 115.806 121.25C116.674 120.381 117.17 119.216 117.17 117.984V103.826C117.17 106.384 115.096 108.458 112.538 108.458C109.98 108.458 107.906 106.384 107.906 103.826Z" fill="#F5FF8A"/>
<path d="M96.6419 104.339C96.1403 105.865 94.7041 106.967 93.0101 106.967C91.3162 106.967 89.88 105.865 89.3784 104.339C89.2549 104.714 89.1877 105.115 89.1877 105.533C89.1877 107.644 90.8989 109.355 93.0101 109.355C95.1214 109.355 96.8325 107.644 96.8325 105.533C96.8325 105.115 96.7653 104.714 96.6419 104.339Z" fill="#76F7F5"/>
<path d="M116.169 116.79C115.668 118.315 114.232 119.419 112.538 119.419C110.844 119.419 109.408 118.315 108.906 116.79C108.783 117.165 108.715 117.567 108.715 117.984C108.715 120.094 110.427 121.805 112.538 121.805C114.649 121.805 116.36 120.094 116.36 117.984C116.36 117.567 116.293 117.165 116.169 116.79Z" fill="#F7FCC5"/>
</g>
<path d="M0.142046 137.726H10.5909L19.4545 159.34H19.8636L28.7273 137.726H39.1761V172.635H30.9602V151.192H30.6705L22.2841 172.413H17.0341L8.64773 151.073H8.35795V172.635H0.142046V137.726ZM51.2436 173.078C49.5731 173.078 48.0902 172.8 46.7947 172.243C45.5106 171.675 44.4936 170.823 43.7436 169.686C43.005 168.538 42.6356 167.101 42.6356 165.374C42.6356 163.919 42.8913 162.692 43.4027 161.692C43.9141 160.692 44.6186 159.879 45.5163 159.254C46.4141 158.629 47.4481 158.158 48.6186 157.84C49.7891 157.51 51.0391 157.288 52.3686 157.175C53.8572 157.038 55.0561 156.896 55.9652 156.749C56.8743 156.59 57.5334 156.368 57.9425 156.084C58.3629 155.788 58.5731 155.374 58.5731 154.84V154.754C58.5731 153.879 58.272 153.203 57.6697 152.726C57.0675 152.249 56.255 152.01 55.2322 152.01C54.13 152.01 53.2436 152.249 52.5731 152.726C51.9027 153.203 51.4766 153.862 51.2947 154.703L43.6072 154.43C43.8345 152.84 44.4197 151.419 45.3629 150.169C46.3175 148.908 47.6243 147.919 49.2834 147.203C50.9538 146.476 52.9595 146.112 55.3004 146.112C56.9709 146.112 58.5106 146.311 59.9197 146.709C61.3288 147.095 62.5561 147.663 63.6016 148.413C64.647 149.152 65.4538 150.061 66.022 151.141C66.6016 152.22 66.8913 153.453 66.8913 154.84V172.635H59.0504V168.987H58.8459C58.38 169.874 57.7834 170.624 57.0561 171.237C56.3402 171.851 55.4936 172.311 54.5163 172.618C53.5504 172.925 52.4595 173.078 51.2436 173.078ZM53.8175 167.624C54.7152 167.624 55.522 167.442 56.2379 167.078C56.9652 166.715 57.5447 166.215 57.9766 165.578C58.4084 164.93 58.6243 164.18 58.6243 163.328V160.84C58.3856 160.965 58.0959 161.078 57.755 161.18C57.4254 161.283 57.0618 161.379 56.6641 161.47C56.2663 161.561 55.8572 161.641 55.4368 161.709C55.0163 161.777 54.6129 161.84 54.2266 161.896C53.4425 162.021 52.772 162.215 52.2152 162.476C51.6697 162.737 51.2493 163.078 50.9538 163.499C50.6697 163.908 50.5277 164.396 50.5277 164.965C50.5277 165.828 50.8345 166.487 51.4481 166.942C52.0731 167.396 52.8629 167.624 53.8175 167.624ZM71.4119 172.635V146.453H79.5085V151.226H79.7812C80.2585 149.499 81.0369 148.215 82.1165 147.374C83.196 146.521 84.4517 146.095 85.8835 146.095C86.2699 146.095 86.6676 146.124 87.0767 146.18C87.4858 146.226 87.8665 146.3 88.2187 146.402V153.646C87.821 153.51 87.2983 153.402 86.6506 153.323C86.0142 153.243 85.446 153.203 84.946 153.203C83.9574 153.203 83.0653 153.425 82.2699 153.868C81.4858 154.3 80.8665 154.908 80.4119 155.692C79.9687 156.465 79.7471 157.374 79.7471 158.419V172.635H71.4119ZM91.039 172.635V137.726H99.3743V150.936H99.5447C99.8856 150.141 100.369 149.374 100.994 148.635C101.63 147.896 102.437 147.294 103.414 146.828C104.403 146.351 105.585 146.112 106.96 146.112C108.778 146.112 110.477 146.59 112.056 147.544C113.647 148.499 114.931 149.97 115.908 151.959C116.886 153.948 117.374 156.482 117.374 159.561C117.374 162.527 116.903 165.01 115.96 167.01C115.028 169.01 113.766 170.51 112.175 171.51C110.596 172.51 108.84 173.01 106.908 173.01C105.59 173.01 104.448 172.794 103.482 172.362C102.516 171.93 101.704 171.362 101.045 170.658C100.397 169.953 99.897 169.198 99.5447 168.391H99.289V172.635H91.039ZM99.2038 159.544C99.2038 160.953 99.3913 162.18 99.7663 163.226C100.153 164.271 100.704 165.084 101.42 165.663C102.147 166.232 103.016 166.516 104.028 166.516C105.05 166.516 105.92 166.232 106.636 165.663C107.352 165.084 107.891 164.271 108.255 163.226C108.63 162.18 108.817 160.953 108.817 159.544C108.817 158.135 108.63 156.913 108.255 155.879C107.891 154.845 107.352 154.044 106.636 153.476C105.931 152.908 105.062 152.624 104.028 152.624C103.005 152.624 102.136 152.902 101.42 153.459C100.704 154.016 100.153 154.811 99.7663 155.845C99.3913 156.879 99.2038 158.112 99.2038 159.544ZM129.501 137.726V172.635H121.166V137.726H129.501ZM146.469 173.129C143.731 173.129 141.367 172.59 139.379 171.51C137.401 170.419 135.879 168.868 134.81 166.857C133.754 164.834 133.225 162.43 133.225 159.646C133.225 156.942 133.759 154.578 134.827 152.555C135.896 150.521 137.401 148.942 139.344 147.817C141.288 146.68 143.577 146.112 146.214 146.112C148.077 146.112 149.782 146.402 151.327 146.982C152.873 147.561 154.208 148.419 155.333 149.555C156.458 150.692 157.333 152.095 157.958 153.766C158.583 155.425 158.896 157.328 158.896 159.476V161.555H136.14V156.715H151.14C151.129 155.828 150.918 155.038 150.509 154.345C150.1 153.652 149.538 153.112 148.822 152.726C148.117 152.328 147.305 152.129 146.384 152.129C145.452 152.129 144.617 152.34 143.879 152.76C143.14 153.169 142.555 153.732 142.123 154.448C141.691 155.152 141.464 155.953 141.441 156.851V161.777C141.441 162.845 141.651 163.783 142.072 164.59C142.492 165.385 143.089 166.004 143.861 166.448C144.634 166.891 145.555 167.112 146.623 167.112C147.361 167.112 148.032 167.01 148.634 166.805C149.236 166.601 149.754 166.3 150.185 165.902C150.617 165.504 150.941 165.016 151.157 164.436L158.81 164.658C158.492 166.374 157.793 167.868 156.714 169.141C155.646 170.402 154.242 171.385 152.504 172.09C150.765 172.783 148.754 173.129 146.469 173.129ZM185.435 154.448L177.781 154.652C177.702 154.107 177.486 153.624 177.133 153.203C176.781 152.771 176.321 152.436 175.753 152.198C175.196 151.948 174.548 151.823 173.81 151.823C172.844 151.823 172.02 152.016 171.338 152.402C170.668 152.788 170.338 153.311 170.349 153.97C170.338 154.482 170.543 154.925 170.963 155.3C171.395 155.675 172.162 155.976 173.264 156.203L178.31 157.158C180.923 157.658 182.866 158.487 184.139 159.646C185.423 160.805 186.071 162.34 186.082 164.249C186.071 166.044 185.537 167.607 184.48 168.936C183.435 170.266 182.003 171.3 180.185 172.038C178.366 172.766 176.287 173.129 173.946 173.129C170.207 173.129 167.258 172.362 165.099 170.828C162.952 169.283 161.724 167.215 161.418 164.624L169.651 164.419C169.832 165.374 170.304 166.101 171.065 166.601C171.827 167.101 172.798 167.351 173.98 167.351C175.048 167.351 175.918 167.152 176.588 166.754C177.258 166.357 177.599 165.828 177.611 165.169C177.599 164.578 177.338 164.107 176.827 163.754C176.315 163.391 175.514 163.107 174.423 162.902L169.855 162.033C167.23 161.555 165.276 160.675 163.991 159.391C162.707 158.095 162.071 156.448 162.082 154.448C162.071 152.698 162.537 151.203 163.48 149.965C164.423 148.715 165.764 147.76 167.503 147.101C169.241 146.442 171.293 146.112 173.656 146.112C177.202 146.112 179.997 146.857 182.043 148.345C184.088 149.823 185.219 151.857 185.435 154.448Z" fill="#E0F2FE"/>
<defs>
<linearGradient id="paint0_linear_0_1" x1="63.353" y1="16.8157" x2="63.3545" y2="126.081" gradientUnits="userSpaceOnUse">
<stop stop-color="#114FEE"/>
<stop offset="1" stop-color="#15B0F8"/>
</linearGradient>
<linearGradient id="paint1_linear_0_1" x1="76.8344" y1="-9.06285" x2="76.8344" y2="119.917" gradientUnits="userSpaceOnUse">
<stop stop-color="#0463EF"/>
<stop offset="1" stop-color="#4EEC91"/>
</linearGradient>
<linearGradient id="paint2_linear_0_1" x1="107.601" y1="-41.0016" x2="107.601" y2="160.687" gradientUnits="userSpaceOnUse">
<stop stop-color="#07ABA0"/>
<stop offset="1" stop-color="#ECF955"/>
</linearGradient>
<linearGradient id="paint3_linear_0_1" x1="132.42" y1="-25.7527" x2="132.42" y2="141.43" gradientUnits="userSpaceOnUse">
<stop stop-color="#0463EF"/>
<stop offset="1" stop-color="#4EEC91"/>
</linearGradient>
<linearGradient id="paint4_linear_0_1" x1="53.597" y1="51.9345" x2="53.597" y2="111.085" gradientUnits="userSpaceOnUse">
<stop stop-color="#0049E7"/>
<stop offset="1" stop-color="#C835F8"/>
</linearGradient>
<clipPath id="clip0_0_1">
<rect width="107.31" height="123.27" fill="white" transform="translate(39.345 0.36499)"/>
</clipPath>
</defs>
</svg>
